<svg xmlns="http://www.w3.org/2000/svg" xmlns:xlink="http://www.w3.org/1999/xlink" width="500" zoomAndPan="magnify" viewBox="0 0 375 374.999991" height="500" preserveAspectRatio="xMidYMid meet" version="1.2"><defs/><g id="0e1a43149a"><g style="fill:#2b2b2b;fill-opacity:1;"><g transform="translate(159.938712, 297.364991)"><path style="stroke:none" d="M 158.3125 -42.671875 L 158.3125 -98.828125 L 113.203125 -8.40625 C 112.910156 -7.519531 112.25 -7.078125 111.21875 -7.078125 L 84.015625 -7.078125 C 82.835938 -7.078125 82.101562 -7.519531 81.8125 -8.40625 L 33.828125 -101.265625 L 33.828125 -1.984375 C 33.828125 -0.660156 33.015625 0 31.390625 0 L 2.21875 0 C 0.738281 0 0 -0.660156 0 -1.984375 L 0 -174.890625 C 0 -176.222656 0.738281 -176.890625 2.21875 -176.890625 L 31.84375 -176.890625 C 33.019531 -176.890625 33.753906 -176.445312 34.046875 -175.5625 L 97.515625 -45.984375 L 157.875 -175.5625 C 158.457031 -176.445312 159.265625 -176.890625 160.296875 -176.890625 L 189.484375 -176.890625 C 191.109375 -176.890625 191.921875 -176.222656 191.921875 -174.890625 L 191.921875 -42.671875 Z M 158.3125 -42.671875 "/></g></g><g style="fill:#2b2b2b;fill-opacity:1;"><g transform="translate(19.098611, 297.364991)"><path style="stroke:none" d="M 134.875 -144.390625 L 101.046875 -144.390625 C 96.773438 -144.535156 91.765625 -144.421875 86.015625 -144.046875 C 80.265625 -143.679688 74.363281 -142.578125 68.3125 -140.734375 C 62.269531 -138.890625 56.632812 -135.976562 51.40625 -132 C 46.175781 -128.019531 41.972656 -122.492188 38.796875 -115.421875 C 35.628906 -108.347656 34.046875 -99.351562 34.046875 -88.4375 C 34.046875 -74.4375 36.957031 -63.195312 42.78125 -54.71875 C 48.601562 -46.25 56.5625 -40.242188 66.65625 -36.703125 C 76.757812 -33.160156 88.222656 -31.6875 101.046875 -32.28125 L 101.046875 -76.5 L 67 -76.5 L 67 -110.328125 L 134.875 -110.328125 L 134.875 -1.984375 C 134.875 -0.660156 134.0625 0 132.4375 0 L 103.703125 0 C 95.003906 0 85.898438 -0.585938 76.390625 -1.765625 C 66.878906 -2.941406 57.59375 -5.222656 48.53125 -8.609375 C 39.46875 -12.003906 31.285156 -16.945312 23.984375 -23.4375 C 16.691406 -29.925781 10.867188 -38.472656 6.515625 -49.078125 C 2.171875 -59.691406 0 -72.8125 0 -88.4375 C 0 -103.625 2.132812 -116.410156 6.40625 -126.796875 C 10.6875 -137.191406 16.472656 -145.671875 23.765625 -152.234375 C 31.066406 -158.796875 39.210938 -163.878906 48.203125 -167.484375 C 57.191406 -171.097656 66.476562 -173.566406 76.0625 -174.890625 C 85.644531 -176.222656 94.859375 -176.890625 103.703125 -176.890625 L 132.4375 -176.890625 C 134.0625 -176.890625 134.875 -176.222656 134.875 -174.890625 Z M 134.875 -144.390625 "/></g></g></g></svg>